<?xml version="1.0" standalone="no"?>
<!DOCTYPE svg PUBLIC "-//W3C//DTD SVG 20010904//EN"
 "http://www.w3.org/TR/2001/REC-SVG-20010904/DTD/svg10.dtd">
<svg version="1.0" xmlns="http://www.w3.org/2000/svg"
 width="189.000000pt" height="211.000000pt" viewBox="0 0 189.000000 211.000000"
 preserveAspectRatio="xMidYMid meet">

<g transform="translate(0.000000,211.000000) scale(0.100000,-0.100000)"
fill="#ff6c78ff" stroke="none">
<path d="M463 1786 c-95 -30 -197 -117 -241 -202 -40 -80 -44 -128 -40 -589
l3 -440 31 -66 c58 -122 172 -208 304 -229 85 -13 775 -13 860 0 132 21 247
106 306 225 l29 60 0 480 0 480 -31 65 c-42 86 -109 154 -192 193 l-67 32
-460 2 c-361 2 -469 -1 -502 -11z m949 -132 c62 -21 121 -74 152 -136 l26 -52
0 -435 0 -436 -24 -50 c-29 -60 -76 -107 -136 -134 -43 -20 -64 -21 -481 -21
l-435 0 -52 26 c-65 32 -118 93 -137 158 -22 75 -22 844 0 907 32 89 86 144
174 175 27 10 138 13 452 14 350 0 423 -2 461 -16z"/>
<path d="M1315 1515 c-53 -52 -14 -144 61 -145 40 0 81 32 89 70 18 82 -90
136 -150 75z"/>
<path d="M845 1396 c-106 -34 -181 -97 -237 -200 -31 -58 -33 -66 -33 -166 0
-96 3 -110 29 -165 57 -115 161 -192 289 -216 124 -23 248 21 340 121 73 78
100 147 100 255 1 172 -108 322 -269 371 -58 17 -165 17 -219 0z m223 -129
c60 -27 119 -98 138 -165 53 -183 -98 -361 -286 -339 -66 8 -120 37 -167 91
-46 52 -63 101 -63 180 0 193 199 316 378 233z"/>
</g>
</svg>
